<svg width="170" height="48" viewBox="0 0 170 48" fill="none" xmlns="http://www.w3.org/2000/svg">
<path d="M68.624 32.288C67.176 32.288 66.016 32.036 65.144 31.532C64.28 31.02 63.652 30.308 63.26 29.396C62.876 28.484 62.684 27.432 62.684 26.24C62.684 26.096 62.684 25.956 62.684 25.82C62.684 25.684 62.684 25.548 62.684 25.412H66.38C66.38 25.476 66.38 25.552 66.38 25.64C66.38 25.728 66.38 25.816 66.38 25.904C66.38 26.488 66.44 27.04 66.56 27.56C66.688 28.08 66.916 28.5 67.244 28.82C67.572 29.14 68.032 29.3 68.624 29.3C69.232 29.3 69.692 29.136 70.004 28.808C70.316 28.48 70.528 28.04 70.64 27.488C70.752 26.936 70.808 26.324 70.808 25.652V14.3H74.528V26.18C74.528 27.012 74.432 27.796 74.24 28.532C74.056 29.268 73.74 29.92 73.292 30.488C72.852 31.048 72.252 31.488 71.492 31.808C70.732 32.128 69.776 32.288 68.624 32.288ZM81.7642 32.264C80.8362 32.264 80.0082 32.116 79.2802 31.82C78.5602 31.524 77.9962 31.096 77.5882 30.536C77.1802 29.976 76.9762 29.296 76.9762 28.496C76.9762 27.592 77.2242 26.856 77.7202 26.288C78.2162 25.72 78.8722 25.288 79.6882 24.992C80.5122 24.688 81.4042 24.488 82.3642 24.392C83.7642 24.256 84.7282 24.132 85.2562 24.02C85.7922 23.908 86.0602 23.712 86.0602 23.432C86.0602 23.424 86.0602 23.416 86.0602 23.408C86.0602 22.936 85.8322 22.564 85.3762 22.292C84.9282 22.02 84.3002 21.884 83.4922 21.884C82.6362 21.884 81.9802 22.04 81.5242 22.352C81.0762 22.656 80.8522 23.124 80.8522 23.756H77.1922C77.1922 22.732 77.4682 21.868 78.0202 21.164C78.5802 20.46 79.3362 19.928 80.2882 19.568C81.2402 19.2 82.3162 19.016 83.5162 19.016C84.6362 19.016 85.6722 19.188 86.6242 19.532C87.5762 19.868 88.3402 20.376 88.9162 21.056C89.5002 21.736 89.7922 22.6 89.7922 23.648C89.7922 23.816 89.7922 23.984 89.7922 24.152C89.7922 24.312 89.7922 24.476 89.7922 24.644V29.156C89.7922 29.484 89.8002 29.8 89.8162 30.104C89.8402 30.4 89.8882 30.672 89.9602 30.92C90.0402 31.2 90.1402 31.432 90.2602 31.616C90.3802 31.8 90.4802 31.928 90.5602 32H86.9002C86.8442 31.944 86.7562 31.828 86.6362 31.652C86.5242 31.476 86.4282 31.272 86.3482 31.04C86.2522 30.76 86.1802 30.48 86.1322 30.2C86.0922 29.912 86.0722 29.576 86.0722 29.192L86.8402 29.72C86.6162 30.248 86.2522 30.704 85.7482 31.088C85.2522 31.464 84.6602 31.756 83.9722 31.964C83.2922 32.164 82.5562 32.264 81.7642 32.264ZM82.7602 29.48C83.3442 29.48 83.8882 29.376 84.3922 29.168C84.9042 28.952 85.3202 28.616 85.6402 28.16C85.9602 27.704 86.1202 27.108 86.1202 26.372V25.088L87.0442 25.988C86.5162 26.18 85.9042 26.34 85.2082 26.468C84.5202 26.588 83.8322 26.684 83.1442 26.756C82.3282 26.836 81.7162 26.976 81.3082 27.176C80.9082 27.368 80.7082 27.696 80.7082 28.16C80.7082 28.6 80.8802 28.932 81.2242 29.156C81.5682 29.372 82.0802 29.48 82.7602 29.48ZM101.491 32V26.588C101.491 26.284 101.491 26.008 101.491 25.76C101.491 25.512 101.491 25.288 101.491 25.088C101.491 24.56 101.423 24.08 101.287 23.648C101.151 23.208 100.907 22.856 100.555 22.592C100.203 22.328 99.6945 22.196 99.0305 22.196C98.4545 22.196 97.9545 22.328 97.5305 22.592C97.1145 22.856 96.7945 23.224 96.5705 23.696C96.3465 24.168 96.2345 24.712 96.2345 25.328L95.2025 24.584C95.2025 23.48 95.4425 22.512 95.9225 21.68C96.4025 20.848 97.0505 20.196 97.8665 19.724C98.6905 19.252 99.6025 19.016 100.603 19.016C101.651 19.016 102.511 19.228 103.182 19.652C103.863 20.068 104.367 20.652 104.695 21.404C105.031 22.148 105.199 23.02 105.199 24.02C105.199 24.428 105.199 24.884 105.199 25.388C105.199 25.892 105.199 26.408 105.199 26.936V32H101.491ZM92.5145 32V19.256H96.2345V32H92.5145ZM107.839 32V19.256H111.523V32H107.839ZM109.675 17.18C109.099 17.18 108.595 17.028 108.163 16.724C107.739 16.42 107.527 15.992 107.527 15.44C107.527 14.88 107.739 14.448 108.163 14.144C108.595 13.84 109.099 13.688 109.675 13.688C110.259 13.688 110.763 13.84 111.187 14.144C111.619 14.448 111.835 14.88 111.835 15.44C111.835 16 111.619 16.432 111.187 16.736C110.763 17.032 110.259 17.18 109.675 17.18ZM118.585 32.264C117.657 32.264 116.829 32.116 116.101 31.82C115.381 31.524 114.817 31.096 114.409 30.536C114.001 29.976 113.797 29.296 113.797 28.496C113.797 27.592 114.045 26.856 114.541 26.288C115.037 25.72 115.693 25.288 116.509 24.992C117.333 24.688 118.225 24.488 119.185 24.392C120.585 24.256 121.549 24.132 122.077 24.02C122.613 23.908 122.881 23.712 122.881 23.432C122.881 23.424 122.881 23.416 122.881 23.408C122.881 22.936 122.653 22.564 122.197 22.292C121.749 22.02 121.121 21.884 120.312 21.884C119.457 21.884 118.801 22.04 118.345 22.352C117.897 22.656 117.673 23.124 117.673 23.756H114.013C114.013 22.732 114.289 21.868 114.841 21.164C115.401 20.46 116.157 19.928 117.109 19.568C118.061 19.2 119.137 19.016 120.337 19.016C121.457 19.016 122.493 19.188 123.445 19.532C124.397 19.868 125.161 20.376 125.737 21.056C126.321 21.736 126.613 22.6 126.613 23.648C126.613 23.816 126.613 23.984 126.613 24.152C126.613 24.312 126.613 24.476 126.613 24.644V29.156C126.613 29.484 126.621 29.8 126.637 30.104C126.661 30.4 126.709 30.672 126.781 30.92C126.861 31.2 126.961 31.432 127.081 31.616C127.201 31.8 127.301 31.928 127.381 32H123.721C123.665 31.944 123.577 31.828 123.457 31.652C123.345 31.476 123.249 31.272 123.169 31.04C123.073 30.76 123.001 30.48 122.953 30.2C122.913 29.912 122.893 29.576 122.893 29.192L123.661 29.72C123.437 30.248 123.073 30.704 122.569 31.088C122.073 31.464 121.481 31.756 120.793 31.964C120.113 32.164 119.377 32.264 118.585 32.264ZM119.581 29.48C120.165 29.48 120.709 29.376 121.213 29.168C121.725 28.952 122.141 28.616 122.461 28.16C122.781 27.704 122.941 27.108 122.941 26.372V25.088L123.865 25.988C123.337 26.18 122.725 26.34 122.029 26.468C121.341 26.588 120.653 26.684 119.965 26.756C119.149 26.836 118.537 26.976 118.129 27.176C117.729 27.368 117.529 27.696 117.529 28.16C117.529 28.6 117.701 28.932 118.045 29.156C118.389 29.372 118.901 29.48 119.581 29.48ZM138.311 32V27.464C138.311 27.304 138.311 27.084 138.311 26.804C138.311 26.524 138.311 26.24 138.311 25.952C138.311 25.664 138.311 25.432 138.311 25.256C138.311 24.28 138.135 23.528 137.783 23C137.431 22.464 136.787 22.196 135.851 22.196C135.243 22.196 134.731 22.32 134.315 22.568C133.899 22.808 133.583 23.148 133.367 23.588C133.159 24.028 133.055 24.544 133.055 25.136L131.975 24.392C131.975 23.328 132.203 22.396 132.659 21.596C133.115 20.788 133.743 20.156 134.543 19.7C135.351 19.244 136.283 19.016 137.339 19.016C138.899 19.016 140.071 19.476 140.855 20.396C141.639 21.308 142.031 22.58 142.031 24.212C142.031 24.628 142.031 25.128 142.031 25.712C142.031 26.296 142.031 26.972 142.031 27.74V32H138.311ZM129.335 32V13.244H133.055V32H129.335Z" fill="white"/>
<path d="M4.11357 17.5385L24 3.09017L43.8864 17.5385L36.2905 40.9164H11.7095L4.11357 17.5385Z" stroke="#EF6D58" stroke-width="5"/>
<path d="M23.5 14L32.535 20.5643L29.084 31.1857H17.916L14.465 20.5643L23.5 14Z" fill="#EF6D58"/>
</svg>
